<svg width="20" height="20" viewBox="0 0 20 20" fill="none" xmlns="http://www.w3.org/2000/svg">
<path d="M5.03166 12.1374L3.66498 18.0554C3.62266 18.2346 3.63536 18.4224 3.70143 18.5943C3.7675 18.7662 3.88387 18.9141 4.03533 19.0188C4.18679 19.1235 4.36631 19.1801 4.55043 19.1812C4.73456 19.1823 4.91474 19.1278 5.06743 19.0249L10.0618 15.6954L15.0561 19.0249C15.2123 19.1287 15.3966 19.1821 15.5841 19.178C15.7716 19.1739 15.9533 19.1124 16.1049 19.0019C16.2564 18.8915 16.3705 18.7372 16.4317 18.56C16.493 18.3827 16.4985 18.191 16.4476 18.0105L14.7699 12.1402L18.9305 8.39603C19.0638 8.27605 19.1589 8.11963 19.2042 7.94614C19.2495 7.77264 19.243 7.58967 19.1854 7.41986C19.1278 7.25004 19.0217 7.10083 18.8802 6.99067C18.7388 6.88051 18.5681 6.81423 18.3893 6.80004L13.1602 6.38362L10.8974 1.3746C10.8252 1.21331 10.7079 1.07635 10.5597 0.980249C10.4114 0.884145 10.2385 0.833008 10.0618 0.833008C9.88508 0.833008 9.71216 0.884145 9.56389 0.980249C9.41561 1.07635 9.29832 1.21331 9.22617 1.3746L6.96335 6.38362L1.7342 6.79913C1.55851 6.81305 1.39055 6.87729 1.25041 6.98416C1.11027 7.09104 1.00389 7.23602 0.943998 7.40178C0.884102 7.56753 0.873228 7.74703 0.912676 7.9188C0.952123 8.09057 1.04022 8.24734 1.16643 8.37035L5.03166 12.1374ZM7.64853 8.16947C7.81225 8.15658 7.96948 8.09987 8.10375 8.0053C8.23802 7.91073 8.34438 7.78179 8.41167 7.63198L10.0618 3.98047L11.7119 7.63198C11.7792 7.78179 11.8855 7.91073 12.0198 8.0053C12.1541 8.09987 12.3113 8.15658 12.475 8.16947L16.1183 8.4584L13.118 11.1587C12.8575 11.3936 12.7539 11.7549 12.8492 12.0925L13.9985 16.1146L10.5718 13.8297C10.4213 13.7288 10.2443 13.6749 10.0631 13.6749C9.882 13.6749 9.70495 13.7288 9.55454 13.8297L5.97366 16.2173L6.93675 12.0475C6.97207 11.8942 6.96733 11.7343 6.92299 11.5833C6.87866 11.4323 6.79621 11.2953 6.6836 11.1853L3.89704 8.46849L7.64853 8.16947Z" fill="#F3CD03"/>
</svg>
