<svg width="20" height="20" viewBox="0 0 20 20" fill="none" xmlns="http://www.w3.org/2000/svg">
<path d="M19.1706 7.41964C19.113 7.24983 19.0068 7.10061 18.8653 6.99043C18.7239 6.88024 18.5532 6.81389 18.3744 6.79959L13.1453 6.38408L10.8825 1.37506C10.8104 1.21373 10.6932 1.07671 10.545 0.980522C10.3968 0.884337 10.2239 0.833105 10.0472 0.833008C9.87048 0.832911 9.69753 0.883954 9.54921 0.979976C9.40088 1.076 9.28352 1.2129 9.21128 1.37415L6.94846 6.38408L1.71931 6.79959C1.54362 6.8135 1.37566 6.87774 1.23552 6.98462C1.09538 7.0915 0.989 7.23648 0.929105 7.40224C0.86921 7.56799 0.858335 7.74749 0.897783 7.91926C0.937231 8.09103 1.02533 8.2478 1.15154 8.37081L5.01585 12.1379L3.64917 18.0559C3.60767 18.235 3.62097 18.4225 3.68734 18.594C3.75372 18.7655 3.8701 18.913 4.02138 19.0175C4.17267 19.1221 4.35188 19.1787 4.53575 19.1801C4.71963 19.1815 4.89968 19.1276 5.05254 19.0254L10.0469 15.6958L15.0412 19.0254C15.1975 19.1291 15.3817 19.1825 15.5692 19.1784C15.7567 19.1743 15.9384 19.1129 16.09 19.0024C16.2415 18.8919 16.3556 18.7377 16.4169 18.5604C16.4781 18.3832 16.4836 18.1914 16.4327 18.0109L14.755 12.1406L18.9156 8.39649C19.188 8.15067 19.288 7.76727 19.1706 7.41964Z" fill="#F3CD03"/>
</svg>
