<svg width="25" height="19" viewBox="0 0 25 19" fill="none" xmlns="http://www.w3.org/2000/svg">
<g filter="url(#filter0_d_1_5301)">
<path d="M8.91075 18C17.213 18 21.7546 11.0731 21.7546 5.07669C21.7546 4.88285 21.7546 4.68625 21.7464 4.49241C22.6306 3.84789 23.3937 3.04993 24 2.13592C23.1741 2.50262 22.2988 2.7443 21.4026 2.85312C22.3466 2.28495 23.0536 1.391 23.3923 0.337403C22.5054 0.86647 21.5346 1.23787 20.5226 1.43534C19.8423 0.705724 18.9419 0.222372 17.9611 0.0601592C16.9803 -0.102054 15.9737 0.0659244 15.0973 0.538075C14.2209 1.01023 13.5236 1.7602 13.1134 2.67182C12.7031 3.58345 12.6029 4.60585 12.8281 5.58066C11.0334 5.49005 9.27762 5.02057 7.67468 4.20269C6.07175 3.3848 4.65744 2.23678 3.5235 0.833069C2.94784 1.83421 2.77216 3.01843 3.03214 4.14526C3.29211 5.27209 3.96825 6.25705 4.92325 6.90013C4.20762 6.87565 3.50772 6.68215 2.88 6.33524V6.39754C2.88123 7.44631 3.24205 8.46248 3.90145 9.27429C4.56086 10.0861 5.4784 10.6438 6.499 10.853C6.11161 10.9605 5.71144 11.014 5.30963 11.0122C5.02635 11.0131 4.74365 10.9867 4.46537 10.9333C4.75383 11.8361 5.3155 12.6254 6.07171 13.1908C6.82793 13.7561 7.74081 14.0691 8.6825 14.0859C7.08276 15.3511 5.10668 16.0373 3.0725 16.034C2.71407 16.0355 2.35588 16.0147 2 15.9716C4.06458 17.297 6.46228 18.0008 8.91075 18V18Z" fill="#23A6F0"/>
</g>
<defs>
<filter id="filter0_d_1_5301" x="-2" y="0" width="30" height="26" filterUnits="userSpaceOnUse" color-interpolation-filters="sRGB">
<feFlood flood-opacity="0" result="BackgroundImageFix"/>
<feColorMatrix in="SourceAlpha" type="matrix" values="0 0 0 0 0 0 0 0 0 0 0 0 0 0 0 0 0 0 127 0" result="hardAlpha"/>
<feOffset dy="4"/>
<feGaussianBlur stdDeviation="2"/>
<feComposite in2="hardAlpha" operator="out"/>
<feColorMatrix type="matrix" values="0 0 0 0 0 0 0 0 0 0 0 0 0 0 0 0 0 0 0.25 0"/>
<feBlend mode="normal" in2="BackgroundImageFix" result="effect1_dropShadow_1_5301"/>
<feBlend mode="normal" in="SourceGraphic" in2="effect1_dropShadow_1_5301" result="shape"/>
</filter>
</defs>
</svg>